<?xml version="1.0" encoding="UTF-8" standalone="no"?>
<svg width="85px" height="99px" viewBox="0 0 85 99" version="1.1" xmlns="http://www.w3.org/2000/svg" xmlns:xlink="http://www.w3.org/1999/xlink">
    <!-- Generator: Sketch 39.1 (31720) - http://www.bohemiancoding.com/sketch -->
    <title>social-instagram</title>
    <desc>Created with Sketch.</desc>
    <defs>
        <polygon id="path-1" points="42.5 0 85 24.6369296 85 73.9107888 42.5 98.5477184 1.687539e-14 73.9107888 -1.0658141e-14 24.6369296"></polygon>
    </defs>
    <g id="Website" stroke="none" stroke-width="1" fill="none" fill-rule="evenodd">
        <g id="Desktop" transform="translate(-776.000000, -1640.000000)">
            <g id="social-instagram" transform="translate(776.000000, 1640.000000)">
                <mask id="mask-2" fill="white">
                    <use xlink:href="#path-1"></use>
                </mask>
                <use id="Mask" fill="#335E88" xlink:href="#path-1"></use>
                <g mask="url(#mask-2)" id="Fill-41" fill="#FFFFFF">
                    <g transform="translate(5.000000, 11.000000)">
                        <path d="M19.637,12.956 L56.528,12.956 C60.033,12.956 62.898,15.823 62.898,19.328 L62.898,56.219 C62.898,59.723 60.033,62.587 56.528,62.587 L19.637,62.587 C16.132,62.587 13.264,59.723 13.264,56.219 L13.264,19.328 C13.264,15.823 16.132,12.956 19.637,12.956 L19.637,12.956 Z M49.422,18.469 C48.191,18.469 47.187,19.477 47.187,20.706 L47.187,26.053 C47.187,27.283 48.191,28.289 49.422,28.289 L55.032,28.289 C56.26,28.289 57.266,27.283 57.266,26.053 L57.266,20.706 C57.266,19.477 56.26,18.469 55.032,18.469 L49.422,18.469 L49.422,18.469 Z M57.287,33.945 L52.92,33.945 C53.335,35.297 53.558,36.724 53.558,38.207 C53.558,46.46 46.649,53.153 38.128,53.153 C29.609,53.153 22.699,46.46 22.699,38.207 C22.699,36.724 22.925,35.297 23.337,33.945 L18.782,33.945 L18.782,54.913 C18.782,55.999 19.668,56.882 20.753,56.882 L55.316,56.882 C56.402,56.882 57.287,55.999 57.287,54.913 L57.287,33.945 L57.287,33.945 Z M38.128,28.007 C32.625,28.007 28.161,32.33 28.161,37.667 C28.161,42.999 32.625,47.325 38.128,47.325 C43.634,47.325 48.097,42.999 48.097,37.667 C48.097,32.33 43.634,28.007 38.128,28.007 L38.128,28.007 Z"></path>
                    </g>
                </g>
            </g>
        </g>
    </g>
</svg>