<?xml version="1.0" encoding="UTF-8" standalone="no"?>
<svg width="85px" height="99px" viewBox="0 0 85 99" version="1.1" xmlns="http://www.w3.org/2000/svg" xmlns:xlink="http://www.w3.org/1999/xlink">
    <!-- Generator: Sketch 39.1 (31720) - http://www.bohemiancoding.com/sketch -->
    <title>social-github</title>
    <desc>Created with Sketch.</desc>
    <defs>
        <polygon id="path-1" points="42.5 0 85 24.6369296 85 73.9107888 42.5 98.5477184 1.687539e-14 73.9107888 -1.0658141e-14 24.6369296"></polygon>
    </defs>
    <g id="Website" stroke="none" stroke-width="1" fill="none" fill-rule="evenodd">
        <g id="Desktop" transform="translate(-888.000000, -1640.000000)">
            <g id="social-github" transform="translate(888.000000, 1640.000000)">
                <mask id="mask-2" fill="white">
                    <use xlink:href="#path-1"></use>
                </mask>
                <use id="Mask" fill="#151514" xlink:href="#path-1"></use>
                <g mask="url(#mask-2)">
                    <g transform="translate(5.000000, 11.000000)">
                        <polygon id="Fill-74" fill="#151514" points="0.258 75.457 75.617 75.457 75.617 0.096 0.258 0.096"></polygon>
                        <path d="M37.937,12.248 C23.48,12.248 11.76,23.967 11.76,38.43 C11.76,49.99 19.258,59.801 29.662,63.266 C30.973,63.504 31.45,62.693 31.45,62.002 C31.45,61.381 31.43,59.734 31.414,57.549 C24.133,59.131 22.598,54.041 22.598,54.041 C21.406,51.018 19.69,50.215 19.69,50.215 C17.314,48.588 19.871,48.621 19.871,48.621 C22.5,48.807 23.882,51.318 23.882,51.318 C26.215,55.32 30.008,54.16 31.501,53.492 C31.736,51.799 32.412,50.65 33.16,49.994 C27.347,49.336 21.236,47.084 21.236,37.055 C21.236,34.201 22.258,31.861 23.929,30.033 C23.661,29.369 22.764,26.709 24.187,23.103 C24.187,23.103 26.383,22.4 31.386,25.789 C33.474,25.207 35.716,24.916 37.94,24.906 C40.163,24.916 42.403,25.207 44.491,25.789 C49.492,22.4 51.688,23.103 51.688,23.103 C53.113,26.709 52.216,29.369 51.945,30.033 C53.62,31.861 54.637,34.201 54.637,37.055 C54.637,47.113 48.514,49.326 42.683,49.975 C43.621,50.783 44.461,52.377 44.461,54.82 C44.461,58.32 44.429,61.143 44.429,62.002 C44.429,62.701 44.902,63.514 46.229,63.258 C56.621,59.793 64.115,49.986 64.115,38.43 C64.115,23.967 52.398,12.248 37.937,12.248" id="Fill-75" fill="#FFFFFF"></path>
                    </g>
                </g>
            </g>
        </g>
    </g>
</svg>