<?xml version="1.0" encoding="UTF-8" standalone="no"?>
<svg width="85px" height="99px" viewBox="0 0 85 99" version="1.1" xmlns="http://www.w3.org/2000/svg" xmlns:xlink="http://www.w3.org/1999/xlink">
    <!-- Generator: Sketch 39.1 (31720) - http://www.bohemiancoding.com/sketch -->
    <title>social-email</title>
    <desc>Created with Sketch.</desc>
    <defs></defs>
    <g id="Website" stroke="none" stroke-width="1" fill="none" fill-rule="evenodd">
        <g id="Desktop" transform="translate(-332.000000, -1640.000000)">
            <g id="social-email" transform="translate(332.000000, 1640.000000)">
                <polygon id="social-copy-5" fill="#EE9D25" points="42.5 0 85 24.6369296 85 73.9107888 42.5 98.5477184 1.687539e-14 73.9107888 -1.0658141e-14 24.6369296"></polygon>
                <path d="M21,52.056 C21,48.2759811 21.6479935,44.8470154 22.944,41.769 C24.2400065,38.6909846 25.9949889,36.054011 28.209,33.858 C30.4230111,31.661989 33.0059852,29.9700059 35.958,28.782 C38.9100148,27.5939941 42.0419834,27 45.354,27 C48.2700146,27 50.9069882,27.4679953 53.265,28.404 C55.6230118,29.3400047 57.6299917,30.6629914 59.286,32.373 C60.9420083,34.0830085 62.2199955,36.1169882 63.12,38.475 C64.0200045,40.8330118 64.47,43.415986 64.47,46.224 C64.47,48.7080124 64.0920038,50.8769907 63.336,52.731 C62.5799962,54.5850093 61.6080059,56.1329938 60.42,57.375 C59.2319941,58.6170062 57.9090073,59.5439969 56.451,60.156 C54.9929927,60.7680031 53.562007,61.074 52.158,61.074 C50.6099923,61.074 49.2600058,60.7140036 48.108,59.994 C46.9559942,59.2739964 46.2360014,58.2660065 45.948,56.97 L45.84,56.97 C45.0839962,58.0140052 44.0940061,58.8689967 42.87,59.535 C41.6459939,60.2010033 40.4760056,60.534 39.36,60.534 C37.1999892,60.534 35.4720065,59.8050073 34.176,58.347 C32.8799935,56.8889927 32.232,54.9180124 32.232,52.434 C32.232,50.7779917 32.5109972,49.1580079 33.069,47.574 C33.6270028,45.9899921 34.3919951,44.5770062 35.364,43.335 C36.3360049,42.0929938 37.4879933,41.0940038 38.82,40.338 C40.1520067,39.5819962 41.5919923,39.204 43.14,39.204 C44.0400045,39.204 44.8319966,39.4109979 45.516,39.825 C46.2000034,40.2390021 46.7759977,40.9319951 47.244,41.904 L47.352,41.904 L48.108,39.636 L53.022,39.636 L50.538,51.516 C49.7819962,54.6120155 50.6099879,56.16 53.022,56.16 C53.814004,56.16 54.5969961,55.9350023 55.371,55.485 C56.1450039,55.0349978 56.8379969,54.3870042 57.45,53.541 C58.0620031,52.6949958 58.5479982,51.669006 58.908,50.463 C59.2680018,49.256994 59.448,47.9160074 59.448,46.44 C59.448,44.4959903 59.1780027,42.6420088 58.638,40.878 C58.0979973,39.1139912 57.2340059,37.5570068 56.046,36.207 C54.8579941,34.8569932 53.3280094,33.786004 51.456,32.994 C49.5839906,32.201996 47.3340131,31.806 44.706,31.806 C42.4019885,31.806 40.152011,32.2829952 37.956,33.237 C35.759989,34.1910048 33.7980086,35.5409913 32.07,37.287 C30.3419914,39.0330087 28.9560052,41.1389877 27.912,43.605 C26.8679948,46.0710123 26.346,48.8159849 26.346,51.84 C26.346,54.5040133 26.7689958,56.8259901 27.615,58.806 C28.4610042,60.7860099 29.6129927,62.4239935 31.071,63.72 C32.5290073,65.0160065 34.2029905,65.9879968 36.093,66.636 C37.9830094,67.2840032 39.9899894,67.608 42.114,67.608 C43.518007,67.608 44.9489927,67.410002 46.407,67.014 C47.8650073,66.617998 49.1699942,66.1140031 50.322,65.502 L52.05,69.822 C50.3939917,70.7220045 48.7020086,71.3789979 46.974,71.793 C45.2459914,72.2070021 43.4100097,72.414 41.466,72.414 C38.7659865,72.414 36.1830123,72.0000041 33.717,71.172 C31.2509877,70.3439959 29.0730094,69.0840085 27.183,67.392 C25.2929905,65.6999915 23.7900056,63.5850127 22.674,61.047 C21.5579944,58.5089873 21,55.5120173 21,52.056 L21,52.056 Z M38.226,51.948 C38.226,54.3600121 39.1619906,55.566 41.034,55.566 C41.6100029,55.566 42.1769972,55.3860018 42.735,55.026 C43.2930028,54.6659982 43.9139966,54.0360045 44.598,53.136 L45.894,45.846 C45.3539973,44.8019948 44.5260056,44.28 43.41,44.28 C42.5819959,44.28 41.8530032,44.5319975 41.223,45.036 C40.5929968,45.5400025 40.0530022,46.1699962 39.603,46.926 C39.1529977,47.6820038 38.8110012,48.5099955 38.577,49.41 C38.3429988,50.3100045 38.226,51.155996 38.226,51.948 L38.226,51.948 Z" id="@" fill="#FFFFFF"></path>
            </g>
        </g>
    </g>
</svg>