<?xml version="1.0" encoding="UTF-8" standalone="no"?>
<svg width="85px" height="99px" viewBox="0 0 85 99" version="1.1" xmlns="http://www.w3.org/2000/svg" xmlns:xlink="http://www.w3.org/1999/xlink">
    <!-- Generator: Sketch 39.1 (31720) - http://www.bohemiancoding.com/sketch -->
    <title>social-fb</title>
    <desc>Created with Sketch.</desc>
    <defs>
        <polygon id="path-1" points="42.5 0 85 24.6369296 85 73.9107888 42.5 98.5477184 1.687539e-14 73.9107888 -1.0658141e-14 24.6369296"></polygon>
    </defs>
    <g id="Website" stroke="none" stroke-width="1" fill="none" fill-rule="evenodd">
        <g id="Desktop" transform="translate(-443.000000, -1640.000000)">
            <g id="social-fb" transform="translate(443.000000, 1640.000000)">
                <mask id="mask-2" fill="white">
                    <use xlink:href="#path-1"></use>
                </mask>
                <use id="Mask" fill="#385184" xlink:href="#path-1"></use>
                <g mask="url(#mask-2)">
                    <g transform="translate(5.000000, 12.000000)">
                        <polygon id="Fill-44" fill="#385084" points="0 75 75 75 75 0 0 0"></polygon>
                        <path d="M65.409,44.896 L66.89,33.417 L55.521,33.417 L55.521,26.087 C55.521,22.763 56.448,20.498 61.214,20.498 L67.288,20.495 L67.288,10.227 C66.239,10.087 62.634,9.775 58.432,9.775 C49.666,9.775 43.669,15.126 43.669,24.951 L43.669,33.417 L33.755,33.417 L33.755,44.896 L43.669,44.896 L43.669,74.352 L55.521,74.352 L55.521,44.896 L65.409,44.896" id="Fill-45" fill="#FFFFFF"></path>
                    </g>
                </g>
            </g>
        </g>
    </g>
</svg>