<?xml version="1.0" encoding="UTF-8"?>
<svg id="Layer_2" xmlns="http://www.w3.org/2000/svg" viewBox="0 0 811.9245 894.9909">
  <defs>
    <style>
      .cls-1 {
        fill: #efefef;
      }

      .cls-2 {
        fill: #fe840e;
      }

      .cls-3 {
        fill: #00539c;
      }
    </style>
  </defs>
  <g id="logo">
    <path id="middle" class="cls-1" d="M811.9235,300.4462c.184-56.5831-24.1995-99.5485-72.2286-127.9205-25.9872-15.3513-52.0253-30.6183-78.0999-45.8237L.075,443.0499c-.0002,1.642-.0021,3.284-.0021,4.926,0,50.1193.2575,100.2404-.069,150.3575-.3601,55.2725,24.5468,96.8288,70.8914,124.3474,12.7823,7.5899,25.5883,15.1404,38.4053,22.6723l702.5413-165.3038c-.0656-93.2012-.2215-186.4029.0815-279.6031Z"/>
    <path id="top" class="cls-2" d="M475.9604,19.9263c-44.3621-25.1839-91.3776-27.1565-136.0134-2.1372-91.5461,51.3136-182.4595,103.818-272.5222,157.6898C22.4018,202.4097-.1344,244.3413.0359,297.6181c.155,48.4768.0443,96.9545.0391,145.4318L661.595,126.702c-61.6653-35.9603-123.558-71.5355-185.6346-106.7757Z"/>
    <path id="bottom" class="cls-3" d="M332.8704,874.2791c47.9481,27.3715,97.0046,27.7602,145.1068.2932,87.0226-49.6912,173.7968-99.8224,260.3832-150.2703,49.2386-28.6879,73.5265-72.1642,73.4933-129.2357-.0029-5.0057-.0083-10.0114-.0118-15.017L109.3006,745.3531c74.165,43.583,148.8603,86.2775,223.5698,128.926Z"/>
  </g>
</svg>